<svg width="24" height="24" viewBox="0 0 24 24" fill="none" xmlns="http://www.w3.org/2000/svg">
<g id="loopnet">
<path id="Vector" fill-rule="evenodd" clip-rule="evenodd" d="M6.25235 7.52439L11.5495 9.01344C11.6556 9.04231 11.7918 8.99497 11.8553 8.90563L13.7918 6.20034C13.8545 6.1084 13.8322 5.98211 13.7419 5.91808C13.7417 5.91794 13.7414 5.91767 13.7411 5.91753L10.9989 4.044C10.8991 3.98311 10.774 3.98557 10.6766 4.05043L6.22079 7.34584C6.13282 7.41261 6.1476 7.49306 6.25235 7.52439ZM14.8922 5.05992L15.1394 10.6536C15.1429 10.7645 15.2309 10.8812 15.3332 10.9161L18.4587 11.9556C18.5637 11.9868 18.6739 11.9267 18.7066 11.8204L19.6082 8.58341C19.6339 8.46779 19.5926 8.34725 19.5017 8.27323L15.0491 4.97426C14.9596 4.90955 14.8891 4.94786 14.8922 5.05992ZM19.8624 12.6676L14.7167 14.6361C14.6096 14.6825 14.5381 14.787 14.5323 14.9054L14.5281 18.2541C14.5299 18.3655 14.6198 18.4544 14.7292 18.4527C14.7298 18.4527 14.7304 18.4527 14.731 18.4527L18.0304 18.3253C18.1463 18.3152 18.2463 18.2383 18.2873 18.1276L19.9912 12.7939C20.0233 12.6865 19.965 12.6296 19.8624 12.6676ZM14.2952 19.8368L10.8684 15.459C10.8014 15.3725 10.6621 15.3287 10.5594 15.3629L7.43174 16.3926C7.32793 16.4294 7.27314 16.5451 7.30926 16.6508C7.3094 16.6511 7.3094 16.6514 7.30953 16.6516L8.44635 19.8097C8.48476 19.9122 8.60348 19.9964 8.71173 19.9964L14.2174 20C14.3267 19.9982 14.3623 19.9253 14.2948 19.8368H14.2952ZM5.71073 16.6336L4.01174 11.2972C3.9779 11.1911 4.0198 11.0503 4.10427 10.9828L6.7009 8.90399C6.78846 8.8364 6.91322 8.85336 6.98024 8.94202L8.9082 11.6554C8.97145 11.7439 8.97454 11.8915 8.91384 11.9833L5.88679 16.6571C5.82461 16.75 5.74578 16.7389 5.71086 16.634V16.6336H5.71073Z" fill="#B6E2E5"/>
</g>
</svg>
