<?xml version="1.0" standalone="no"?>
<!DOCTYPE svg PUBLIC "-//W3C//DTD SVG 20010904//EN"
 "http://www.w3.org/TR/2001/REC-SVG-20010904/DTD/svg10.dtd">
<svg version="1.0" xmlns="http://www.w3.org/2000/svg"
 width="371.000000pt" height="371.000000pt" viewBox="0 0 371.000000 371.000000"
 preserveAspectRatio="xMidYMid meet">
<metadata>
Created by potrace 1.14, written by Peter Selinger 2001-2017
</metadata>
<g transform="translate(0.000000,371.000000) scale(0.100000,-0.100000)"
fill="#000000" stroke="none">
<path d="M1094 3596 c7 -134 11 -160 42 -256 27 -87 71 -161 122 -209 80 -74
277 -141 456 -155 l68 -5 -6 107 c-3 59 -8 118 -11 132 -3 14 -8 41 -11 60 -9
50 -51 159 -78 200 -88 134 -269 213 -535 234 l-54 4 7 -112z"/>
<path d="M430 1425 l0 -1420 685 0 685 0 0 1420 0 1420 -685 0 -685 0 0 -1420z"/>
<path d="M1909 2846 c-1 0 -2 -306 -3 -678 l-1 -678 677 0 c373 0 678 3 679 8
0 10 1 1290 0 1323 l-1 26 -675 0 c-371 0 -676 0 -676 -1z"/>
<path d="M1935 1382 l-30 -3 0 -687 0 -687 307 0 c269 0 308 2 309 15 0 8 1
318 2 688 l2 672 -70 1 c-279 3 -495 4 -520 1z"/>
<path d="M2693 1382 c-40 -2 -63 -7 -64 -15 -3 -73 1 -611 5 -615 8 -7 615 -7
622 1 11 11 10 627 -1 627 -61 3 -515 4 -562 2z"/>
<path d="M2630 615 c-1 -14 -1 -135 -1 -270 0 -135 0 -266 1 -293 l0 -47 309
0 c170 0 313 3 317 7 5 5 9 561 5 621 -1 4 -143 7 -316 7 l-315 0 0 -25z"/>
</g>
</svg>
