<?xml version="1.0" encoding="UTF-8"?>
<svg id="Layer_2" data-name="Layer 2" xmlns="http://www.w3.org/2000/svg" viewBox="0 0 526.84 477.36">
  <defs>
    <style>
      .cls-1 {
        fill: #001e61;
      }

      .cls-1, .cls-2 {
        stroke-width: 0px;
      }

      .cls-2 {
        fill: #58595b;
      }
    </style>
  </defs>
  <g id="Layer_1-2" data-name="Layer 1">
    <g>
      <g>
        <path class="cls-1" d="M41.57,426.28H10.41v15.83h29.77v8.28H10.41v17.3h31.16v8.69H0v-58.55h41.57v8.45Z"/>
        <path class="cls-1" d="M96.84,476.38h-12.05l-13.45-22.39h-13.61v22.39h-10.33v-58.55h27.8c6.5,0,11.58,1.61,15.21,4.84,3.63,3.23,5.45,7.63,5.45,13.2,0,4.43-1.15,8.15-3.44,11.15-2.3,3.01-5.6,5.06-9.92,6.15l14.35,23.21ZM57.73,426.28v19.27h15.99c3.77,0,6.64-.83,8.61-2.5,1.97-1.67,2.95-4.06,2.95-7.17s-.98-5.42-2.95-7.09c-1.97-1.67-4.84-2.5-8.61-2.5h-15.99Z"/>
        <path class="cls-1" d="M127.67,417.83c6.56,0,11.63,1.65,15.21,4.96,3.58,3.31,5.37,7.8,5.37,13.49s-1.79,10.18-5.37,13.49c-3.58,3.31-8.65,4.96-15.21,4.96h-15.83v21.65h-10.33v-58.55h26.16ZM126.11,446.29c3.77,0,6.66-.87,8.65-2.62,2-1.75,2.99-4.21,2.99-7.38s-1-5.63-2.99-7.38c-2-1.75-4.88-2.62-8.65-2.62h-14.27v20.01h14.27Z"/>
      </g>
      <g>
        <path class="cls-2" d="M174.33,476.38h-9.68v-43.38h9.68v43.38ZM174.33,426.44h-9.59v-9.43h9.59v9.43Z"/>
        <path class="cls-2" d="M190.16,433v5.74h.33c3.12-4.48,7.63-6.72,13.53-6.72,4.32,0,7.94,1.33,10.87,3.98,2.92,2.65,4.39,6.57,4.39,11.77v28.62h-9.59v-25.99c0-3.72-.75-6.38-2.25-8-1.5-1.61-3.76-2.42-6.76-2.42-1.8,0-3.47.49-5,1.48-1.53.98-2.76,2.43-3.69,4.35-.93,1.91-1.39,4.21-1.39,6.89v23.7h-9.59v-43.38h9.18Z"/>
        <path class="cls-2" d="M251.45,433.62c2.27,1.07,3.98,2.53,5.12,4.39h.33v-20.99h9.59v59.37h-9.1v-5.58h-.33c-1.2,2.08-2.98,3.69-5.33,4.84-2.35,1.15-5.03,1.72-8.04,1.72-3.77,0-7.13-.94-10.09-2.83-2.95-1.89-5.26-4.54-6.93-7.95-1.67-3.42-2.5-7.37-2.5-11.85s.83-8.51,2.5-11.93c1.67-3.42,3.98-6.07,6.93-7.95s6.29-2.83,10-2.83c2.95,0,5.56.53,7.83,1.6ZM254.32,465.8c2.1-2.68,3.16-6.37,3.16-11.07s-1.05-8.39-3.16-11.07c-2.1-2.68-4.93-4.02-8.49-4.02s-6.55,1.34-8.65,4.02c-2.11,2.68-3.16,6.37-3.16,11.07s1.05,8.39,3.16,11.07c2.1,2.68,4.99,4.02,8.65,4.02s6.38-1.34,8.49-4.02Z"/>
        <path class="cls-2" d="M301.92,476.38v-5.74h-.33c-3.17,4.48-7.71,6.72-13.61,6.72-4.32,0-7.94-1.31-10.87-3.94-2.92-2.62-4.39-6.53-4.39-11.73v-28.7h9.59v25.99c0,3.72.75,6.4,2.25,8.04,1.5,1.64,3.76,2.46,6.76,2.46,1.75,0,3.4-.49,4.96-1.48,1.56-.98,2.8-2.43,3.73-4.35.93-1.91,1.39-4.21,1.39-6.89v-23.78h9.59v43.38h-9.1Z"/>
        <path class="cls-2" d="M343.58,446.04c-.55-2.3-1.69-4.04-3.44-5.25-1.75-1.2-3.8-1.8-6.15-1.8s-4.32.51-5.74,1.52c-1.42,1.01-2.13,2.45-2.13,4.3,0,1.59.67,2.73,2.01,3.44,1.34.71,3.38,1.29,6.11,1.72l4.35.66c4.65.82,8.27,2.15,10.87,3.98,2.6,1.83,3.9,4.88,3.9,9.14s-1.75,7.74-5.25,10.09c-3.5,2.35-8.06,3.53-13.69,3.53s-9.95-1.23-13.45-3.69c-3.5-2.46-5.63-5.74-6.4-9.84l8.86-1.64c.6,2.84,1.86,4.95,3.77,6.31,1.91,1.37,4.37,2.05,7.38,2.05,2.68,0,4.85-.59,6.52-1.76,1.67-1.17,2.5-2.75,2.5-4.71,0-1.69-.72-2.95-2.17-3.77-1.45-.82-3.62-1.48-6.52-1.97l-4.51-.74c-4.26-.71-7.67-1.95-10.21-3.73-2.54-1.78-3.81-4.74-3.81-8.9,0-2.51.76-4.76,2.3-6.72,1.53-1.97,3.65-3.5,6.36-4.59,2.71-1.09,5.73-1.64,9.06-1.64s6.07.55,8.69,1.64c2.62,1.09,4.77,2.6,6.44,4.51,1.67,1.91,2.72,4.02,3.16,6.31l-8.77,1.56Z"/>
        <path class="cls-2" d="M380.15,468.43v7.95c-1.31.11-3.55.16-6.72.16-2.84,0-5.1-.27-6.76-.82-1.67-.55-2.91-1.53-3.73-2.95-.82-1.42-1.23-3.44-1.23-6.07v-26.81h-7.05v-6.89h7.05v-12.14h9.59v12.14h9.27v6.89h-9.27v24.27c0,1.86.36,3.05,1.07,3.57.71.52,2,.78,3.85.78s3.17-.03,3.94-.08Z"/>
        <path class="cls-2" d="M385.07,433h9.18v6.56h.33c1.15-2.24,2.84-4.06,5.08-5.45,2.24-1.39,4.84-2.09,7.79-2.09,1.26,0,2.43.14,3.53.41v9.1c-.38-.05-1.01-.12-1.89-.21-.88-.08-1.69-.12-2.46-.12-7.98,0-11.97,4.18-11.97,12.55v22.63h-9.59v-43.38Z"/>
        <path class="cls-2" d="M424.76,476.38h-9.68v-43.38h9.68v43.38ZM424.76,426.44h-9.59v-9.43h9.59v9.43Z"/>
        <path class="cls-2" d="M459.93,476.38c-.33-.38-.62-1.05-.86-2.01-.25-.96-.4-2.06-.45-3.32-1.26,2.08-3.2,3.65-5.82,4.71-2.62,1.07-5.38,1.6-8.28,1.6-2.68,0-5.14-.52-7.38-1.56-2.24-1.04-4.02-2.53-5.33-4.47-1.31-1.94-1.97-4.22-1.97-6.85,0-4.48,1.52-7.79,4.55-9.92,3.03-2.13,7.61-3.5,13.73-4.1,4.04-.44,6.81-1.02,8.28-1.76s2.21-1.82,2.21-3.24c0-1.91-.7-3.39-2.09-4.43-1.39-1.04-3.54-1.56-6.44-1.56-2.24,0-4.25.57-6.03,1.72-1.78,1.15-3.02,2.87-3.73,5.17l-8.86-1.72c.93-3.94,3.1-7.02,6.52-9.27,3.42-2.24,7.56-3.36,12.42-3.36,6.07,0,10.55,1.23,13.45,3.69,2.9,2.46,4.35,5.74,4.35,9.84v21.73c0,2.68.07,4.65.21,5.9.14,1.26.45,2.32.94,3.2h-9.43ZM458.62,454.49c-.66.6-1.89,1.11-3.69,1.52-1.8.41-4.1.78-6.89,1.11-2.46.33-4.48,1.08-6.07,2.25-1.59,1.18-2.38,2.8-2.38,4.88,0,1.91.61,3.39,1.84,4.43,1.23,1.04,2.94,1.56,5.12,1.56,1.91,0,3.78-.38,5.62-1.15,1.83-.76,3.36-1.95,4.59-3.57,1.23-1.61,1.84-3.65,1.84-6.11v-4.92Z"/>
        <path class="cls-2" d="M484.12,476.38h-9.68v-59.37h9.68v59.37Z"/>
        <path class="cls-2" d="M517.09,446.04c-.55-2.3-1.69-4.04-3.44-5.25-1.75-1.2-3.8-1.8-6.15-1.8s-4.32.51-5.74,1.52c-1.42,1.01-2.13,2.45-2.13,4.3,0,1.59.67,2.73,2.01,3.44,1.34.71,3.38,1.29,6.11,1.72l4.35.66c4.65.82,8.27,2.15,10.87,3.98,2.6,1.83,3.9,4.88,3.9,9.14s-1.75,7.74-5.25,10.09c-3.5,2.35-8.06,3.53-13.69,3.53s-9.95-1.23-13.45-3.69c-3.5-2.46-5.63-5.74-6.4-9.84l8.86-1.64c.6,2.84,1.86,4.95,3.77,6.31,1.91,1.37,4.37,2.05,7.38,2.05,2.68,0,4.85-.59,6.52-1.76,1.67-1.17,2.5-2.75,2.5-4.71,0-1.69-.72-2.95-2.17-3.77-1.45-.82-3.62-1.48-6.52-1.97l-4.51-.74c-4.26-.71-7.67-1.95-10.21-3.73-2.54-1.78-3.81-4.74-3.81-8.9,0-2.51.76-4.76,2.3-6.72,1.53-1.97,3.65-3.5,6.36-4.59,2.71-1.09,5.73-1.64,9.06-1.64s6.07.55,8.69,1.64c2.62,1.09,4.77,2.6,6.44,4.51,1.67,1.91,2.72,4.02,3.16,6.31l-8.77,1.56Z"/>
      </g>
      <g>
        <path class="cls-2" d="M424.22,346.88c-6.58,0-11.93,5.35-11.93,11.93s5.35,11.93,11.93,11.93,11.93-5.35,11.93-11.93-5.35-11.93-11.93-11.93ZM424.22,369.06c-5.65,0-10.25-4.6-10.25-10.25s4.6-10.25,10.25-10.25,10.25,4.6,10.25,10.25-4.6,10.25-10.25,10.25Z"/>
        <path class="cls-2" d="M420.23,353.9h4.49c1.25,0,2.21.35,2.86.99.55.55.84,1.32.84,2.24v.03c0,1.58-.85,2.58-2.1,3.04l2.4,3.5h-2.52l-2.1-3.14h-1.7v3.14h-2.16v-9.81ZM424.58,358.67c1.05,0,1.65-.56,1.65-1.39v-.03c0-.93-.64-1.4-1.7-1.4h-2.15v2.82h2.19Z"/>
        <rect class="cls-1" x="340.66" y="232.25" width="63.38" height="63.38"/>
        <rect class="cls-1" x="268.51" y="85.91" width="135.53" height="135.53"/>
        <rect class="cls-1" x="340.66" y="306.51" width="63.38" height="63.38"/>
        <rect class="cls-1" x="268.6" y="232.25" width="61.34" height="137.63"/>
        <rect class="cls-1" x="120.92" y="86.08" width="136.96" height="283.82"/>
        <path class="cls-1" d="M241.09,17.98C224.64.47,187.85,0,187.48,0h-.48s-.03.47-.03.47c-.02.37-1.85,37.11,14.61,54.63,16.45,17.51,53.24,17.98,53.61,17.98h.48s.03-.47.03-.47c.02-.37,1.85-37.11-14.61-54.63Z"/>
      </g>
    </g>
  </g>
</svg>